<?xml version="1.0" encoding="utf-8"?>
<!-- Generator: Adobe Illustrator 19.0.0, SVG Export Plug-In . SVG Version: 6.00 Build 0)  -->
<svg version="1.1" id="Layer_1" xmlns="http://www.w3.org/2000/svg" xmlns:xlink="http://www.w3.org/1999/xlink" x="0px" y="0px"
	 viewBox="0 0 333 300" style="enable-background:new 0 0 333 300;" xml:space="preserve">
<style type="text/css">
	.st0{display:none;}
    .st1{display:inline;fill:#fff;}
    .st2{display:inline;}
    .st3{display:inline;fill:url(#XMLID_59_);}
    .st4{display:inline;fill:#fff;}
    .st5{fill:#fff;}
    .st6{fill:url(#XMLID_60_);}
    .st7{fill:#fff;}
    .st8{fill:#FFFFFF;}
    .st9{display:inline;fill:#fff;}
    .st10{display:inline;fill:url(#XMLID_61_);}
    .st11{display:inline;fill:#fff;}
</style>
<g id="XMLID_2_" class="st0">
	<path id="XMLID_8_" class="st1" d="M20,244.9c6,3.1,12.1,4.9,18.6,4.9c8.8,0,15.5-3.7,20-11.4c1.1-1.9,2.9-3.3,4.5-4.8
		c15.4-15.3,30.8-30.6,46.3-45.9c0.2-0.2,0.4-0.3,1-0.8c0.1,1,0.3,1.6,0.3,2.2c-0.1,11.8,0.1,23.7-0.3,35.5
		c-0.5,13.6-3.1,26.8-9.2,39.1c-5.8,11.5-14.1,20.9-26,26.2c-13,5.8-26.8,7.3-41,5c-10.1-1.6-19.4-5-28.2-10c-3.8-2.2-3.7-2.1-1.9-6
		c5-10.6,9.8-21.2,14.8-31.9C19.1,246.4,19.5,245.8,20,244.9z"/>
	<path id="XMLID_7_" class="st2" d="M63.9,176.5c0.1,0.9,0.3,1.8,0.4,2.8c-0.4,0.1-0.7,0.1-1.1,0.2c-0.1-0.9-0.3-1.8-0.4-2.7
		C63.1,176.6,63.5,176.6,63.9,176.5z"/>
	<path id="XMLID_6_" class="st2" d="M78,157.6c0.2-2.2,1.1-3.4,2.7-3.3c0.8,0,1.6,1.2,2.4,1.9c-1.2,1.1-2.4,2.1-3.6,3.2
		C78.9,158.7,78.3,158.1,78,157.6z"/>
	<linearGradient id="XMLID_59_" gradientUnits="userSpaceOnUse" x1="62.7455" y1="97.3958" x2="317.2478" y2="97.3958">
		<stop  offset="0" style="stop-color:#A2055E"/>
		<stop  offset="1" style="stop-color:#551254"/>
	</linearGradient>
	<path id="XMLID_5_" class="st3" d="M316.4,33c-1.5-1.1-2.8-2.3-4.2-3.5c-9.4-7.6-19.6-13.9-30.8-18.3c-11.1-4.3-22.7-6.4-34.6-6.9
		c-11.7-0.6-22.7,1.7-33.4,6.3c-8.8,3.8-16.4,9.2-23.8,15.1c-23.4,18.7-45.4,39-67.6,59.1c-3.3,3-6.6,6.1-10.4,9.6c0-1.4,0-2.2,0-3
		c0-11.6,0-23.2,0-34.9c0-3.5,0-3.5-3.4-3.5c-14.1,0-28.1,0-42.2,0c-3.2,0-3.2,0-3.2,3.1c0,20.1,0,40.2,0,60.3c0,14.5,0,29.1,0,43.6
		l-0.1,25.6l0,0c0,1.6,0.3,3.3,0.1,5c1.1-0.7,1.6-1,2.1-1.5c0.8-1.6,2.9-3.4,5.9-5.3c22.7-20.5,45.5-41,68.2-61.5
		c19.6-17.7,39.1-35.4,58.7-52.9c6.3-5.7,12.7-11.3,19.5-16.4c5.9-4.4,12.8-7.3,20.3-7.7c5.4-0.3,11,0.1,16.4,1
		c10.3,1.6,19.6,6.1,27.9,12.4c2.9,2.2,5.8,4.6,8.8,7c2.7-3.2,5.4-6.3,8-9.4c6-7,11.9-14,17.9-21C317.4,34.4,317.5,33.8,316.4,33z"
		/>
	<path id="XMLID_4_" class="st4" d="M324.4,133.4c-2.7-10.5-8.4-19-16.6-25.8c0,0,0,0,0,0c-0.3-0.2-0.6-0.4-0.9-0.7
		c-0.2-0.2-0.4-0.3-0.6-0.5c0,0-0.1,0-0.1-0.1c-6.3-4.7-12.5-7.3-15.3-8.4c-0.1-0.1-0.3-0.2-0.4-0.3c-10.7-4.4-22.1-6.4-33.5-7.8
		c-5.2-0.6-10.5-0.8-15.7-1.4c-5.4-0.7-10.8-1.6-16.2-2.7c-1.7-0.4-2.8-0.1-4,1c-8.1,7.4-16.4,14.7-24.5,22.1
		c-2.6,2.4-5.2,4.8-7.9,7.3c0.6,0.4,0.8,0.7,1.1,0.9c7.3,3.8,14.8,6.8,22.8,8.3c7.9,1.6,15.9,3,23.9,4c9.5,1.2,19.1,1.2,28.2,4.2
		c4.5,1.4,8.7,3.4,11.3,7.5c4.5,7,3,16.2-3.6,22.4c-7.3,6.8-16.4,9.3-26,9.7c-10,0.4-19.8-1.2-29.5-3.6c-7.7-1.9-15.2-4.4-22-8.6
		c-4.8-2.9-9.2-6.4-14-9.9c0,0-0.3,0.1-0.6,0.4c-8.8,8.5-17.6,17-26.5,25.4c-1.2,1.1-0.8,1.9,0.1,2.8c18.8,19.1,41.2,31,67.9,34.4
		c14.5,1.9,29.1,1.9,43.6-0.6c12.2-2.1,23.6-5.8,33.9-12.7c16.6-11,26-26.4,27.2-46.4C327,147.4,326.2,140.4,324.4,133.4z"/>
	<g id="XMLID_3_" class="st2">
		<path id="XMLID_47_" d="M112.2,183.6c-0.9,2.1-2.5,4.2-5,6.4c-3.2,2.9-6.5,4.2-10,3.9c-3.5-0.2-6.7-1.9-9.5-5
			c-3-3.3-4.4-6.9-4.2-10.9s1.9-7.3,5.2-10.3c2-1.8,4-3.1,5.8-3.8l4,4.5c-2.1,0.4-4.1,1.4-5.9,3c-2,1.7-3,3.8-3.1,6.1
			c-0.1,2.3,0.8,4.5,2.7,6.6c1.8,2,3.8,3.1,6,3.3c2.2,0.2,4.3-0.6,6.2-2.3c1.8-1.6,3.1-3.6,3.8-5.8L112.2,183.6z"/>
		<path id="XMLID_49_" d="M128.8,170.7c-3,2.7-6.3,3.9-9.9,3.6c-3.6-0.3-6.8-1.9-9.6-5.1c-2.9-3.3-4.4-6.8-4.3-10.5
			c0.1-3.7,1.7-7,4.8-9.8c3-2.7,6.2-3.8,9.8-3.5c3.6,0.3,6.8,2,9.6,5.2c2.9,3.3,4.3,6.8,4.2,10.5S131.9,168,128.8,170.7z
			 M113.4,153.1c-1.6,1.5-2.4,3.3-2.3,5.4c0.1,2.1,1.1,4.2,2.9,6.2c1.8,2.1,3.8,3.3,5.8,3.6c2,0.3,3.8-0.2,5.4-1.6
			c1.6-1.4,2.4-3.2,2.3-5.2c-0.1-2-1.1-4.1-2.9-6.1c-1.9-2.2-3.9-3.4-5.9-3.8S115,151.6,113.4,153.1z"/>
		<path id="XMLID_52_" d="M154.6,147.7c-3,2.7-6.3,3.9-9.9,3.6c-3.6-0.3-6.8-1.9-9.6-5.1c-2.9-3.3-4.4-6.8-4.3-10.5
			c0.1-3.7,1.7-7,4.8-9.8c3-2.7,6.2-3.8,9.8-3.5c3.6,0.3,6.8,2,9.6,5.2c2.9,3.3,4.3,6.8,4.2,10.5
			C159.2,141.7,157.6,144.9,154.6,147.7z M139.1,130c-1.6,1.5-2.4,3.3-2.3,5.4c0.1,2.1,1.1,4.2,2.9,6.2c1.8,2.1,3.8,3.3,5.8,3.6
			c2,0.3,3.8-0.2,5.4-1.6c1.6-1.4,2.4-3.2,2.3-5.2c-0.1-2-1.1-4.1-2.9-6.1c-1.9-2.2-3.9-3.4-5.9-3.8
			C142.5,128.1,140.7,128.6,139.1,130z"/>
		<path id="XMLID_55_" d="M188.5,116.7l-5.9,5.3l-14.2-3.6c-0.3-0.1-0.8-0.3-1.6-0.7l-0.1,0.1l9.1,10.2l-4.7,4.2l-18.6-20.8l4.7-4.2
			l8.8,9.8l0.1-0.1c-0.1-0.4-0.3-0.9-0.5-1.7l-2-13.8l5.6-5l1.6,16.4L188.5,116.7z"/>
		<path id="XMLID_57_" d="M192.1,112l-4.2-4.6c1.5,0,2.9-0.3,4.2-0.9c1.3-0.5,2.5-1.2,3.5-2.1c0.6-0.5,1.1-1,1.4-1.5
			c0.3-0.5,0.6-1,0.7-1.4c0.1-0.5,0.1-0.9,0.1-1.3c-0.1-0.4-0.3-0.7-0.5-1c-0.4-0.4-0.8-0.7-1.3-0.8c-0.5-0.1-1.1-0.1-1.7,0
			c-0.6,0.1-1.4,0.3-2.1,0.5c-0.8,0.2-1.6,0.5-2.5,0.8c-2.2,0.8-4.2,1-5.9,0.8s-3.1-1.1-4.4-2.5c-1-1.1-1.6-2.2-1.8-3.4
			c-0.3-1.2-0.2-2.3,0.1-3.5c0.3-1.2,0.8-2.3,1.6-3.4c0.8-1.1,1.7-2.2,2.8-3.2c1.1-1,2.1-1.8,3.1-2.4c1-0.6,1.9-1.1,2.9-1.5l3.9,4.3
			c-0.6,0.1-1.1,0.2-1.7,0.4c-0.6,0.2-1.1,0.4-1.7,0.7c-0.5,0.3-1.1,0.6-1.5,0.9c-0.5,0.3-0.9,0.7-1.3,1c-0.5,0.5-1,1-1.3,1.4
			c-0.3,0.5-0.6,1-0.7,1.4c-0.1,0.5-0.2,0.9-0.1,1.3c0.1,0.4,0.2,0.8,0.5,1.1c0.3,0.3,0.7,0.6,1.1,0.7c0.4,0.1,0.9,0.1,1.5,0.1
			c0.6-0.1,1.2-0.2,1.9-0.4c0.7-0.2,1.5-0.4,2.3-0.7c1.1-0.4,2.2-0.7,3.2-0.9c1-0.2,2-0.3,2.9-0.2c0.9,0.1,1.8,0.3,2.6,0.7
			c0.8,0.4,1.6,1,2.4,1.9c1,1.2,1.7,2.3,2,3.5c0.3,1.2,0.2,2.4-0.1,3.5c-0.3,1.2-0.9,2.3-1.7,3.4c-0.8,1.1-1.8,2.2-2.9,3.2
			c-1.1,1-2.3,1.9-3.5,2.6C194.3,111.2,193.2,111.7,192.1,112z"/>
	</g>
</g>
<g id="XMLID_9_">
	<path id="XMLID_15_" class="st5" d="M20.2,245.1c6,3.1,12,4.9,18.6,4.9c8.8,0,15.4-3.7,19.9-11.4c1.1-1.9,2.9-3.3,4.5-4.8
		c15.4-15.3,30.8-30.5,46.2-45.8c0.2-0.2,0.4-0.3,1-0.8c0.1,1,0.3,1.6,0.3,2.2c-0.1,11.8,0.1,23.7-0.3,35.5
		c-0.5,13.6-3.1,26.8-9.2,39c-5.8,11.5-14,20.9-25.9,26.1c-13,5.8-26.7,7.2-40.9,5c-10.1-1.6-19.4-4.9-28.2-10
		c-3.8-2.2-3.7-2.1-1.9-6c4.9-10.6,9.8-21.2,14.7-31.8C19.3,246.6,19.7,245.9,20.2,245.1z"/>
	<path id="XMLID_14_" d="M64,176.8c0.1,0.9,0.3,1.8,0.4,2.8c-0.4,0.1-0.7,0.1-1.1,0.2c-0.1-0.9-0.3-1.8-0.4-2.7
		C63.3,176.9,63.6,176.8,64,176.8z"/>
	<path id="XMLID_13_" d="M78.1,158c0.2-2.2,1.1-3.4,2.7-3.3c0.8,0,1.6,1.2,2.4,1.9c-1.2,1.1-2.4,2.1-3.6,3.2
		C79,159.1,78.5,158.4,78.1,158z"/>
	<linearGradient id="XMLID_60_" gradientUnits="userSpaceOnUse" x1="62.8894" y1="97.7979" x2="317.011" y2="97.7979">
		<stop  offset="0" style="stop-color:#fff"/>
		<stop  offset="1" style="stop-color:#fff"/>
	</linearGradient>
	<path id="XMLID_12_" class="st6" d="M316.2,33.5c-1.5-1.1-2.8-2.3-4.2-3.5c-9.4-7.6-19.5-13.9-30.8-18.3
		c-11.1-4.3-22.7-6.3-34.6-6.9C235,4.1,223.9,6.4,213.2,11c-8.7,3.8-16.4,9.2-23.7,15.1c-23.4,18.7-45.4,38.9-67.5,59.1
		c-3.3,3-6.6,6.1-10.4,9.6c0-1.4,0-2.2,0-3c0-11.6,0-23.2,0-34.8c0-3.5,0-3.5-3.4-3.5c-14.1,0-28.1,0-42.2,0c-3.2,0-3.2,0-3.2,3.1
		c0,20.1,0,40.2,0,60.3c0,14.5,0,29,0,43.5L62.9,186l0,0c0,1.6,0.3,3.2,0.1,5c1.1-0.7,1.6-1,2.1-1.5c0.8-1.6,2.9-3.4,5.9-5.3
		c22.7-20.5,45.4-40.9,68.1-61.4c19.6-17.6,39-35.3,58.7-52.9c6.3-5.7,12.7-11.3,19.5-16.4c5.9-4.4,12.8-7.3,20.2-7.7
		c5.4-0.3,11,0.1,16.3,1c10.3,1.6,19.5,6.1,27.8,12.4c2.9,2.2,5.8,4.6,8.8,7c2.7-3.2,5.4-6.3,8-9.4c6-7,11.9-14,17.9-21
		C317.2,34.9,317.3,34.3,316.2,33.5z"/>
	<path id="XMLID_11_" class="st7" d="M324.2,133.7c-2.7-10.5-8.4-19-16.6-25.8c0,0,0,0,0,0c-0.3-0.2-0.6-0.4-0.9-0.7
		c-0.2-0.2-0.4-0.3-0.6-0.5c0,0-0.1,0-0.1-0.1c-6.3-4.7-12.5-7.3-15.3-8.4c-0.1-0.1-0.3-0.2-0.4-0.3c-10.7-4.4-22-6.4-33.5-7.7
		c-5.2-0.6-10.5-0.8-15.7-1.4c-5.4-0.7-10.8-1.6-16.2-2.7c-1.7-0.4-2.8-0.1-4,1c-8.1,7.4-16.3,14.7-24.5,22.1
		c-2.6,2.4-5.2,4.8-7.9,7.2c0.6,0.4,0.8,0.7,1.1,0.9c7.2,3.8,14.8,6.8,22.8,8.3c7.9,1.6,15.9,3,23.8,4c9.4,1.2,19,1.2,28.2,4.2
		c4.5,1.4,8.7,3.4,11.3,7.5c4.5,7,3,16.2-3.6,22.4c-7.3,6.8-16.4,9.3-26,9.7c-9.9,0.4-19.8-1.2-29.4-3.6c-7.7-1.9-15.2-4.4-22-8.6
		c-4.8-2.9-9.1-6.4-14-9.9c0,0-0.3,0.1-0.6,0.4c-8.8,8.5-17.6,16.9-26.4,25.4c-1.2,1.1-0.8,1.9,0.1,2.8c18.8,19,41.1,30.9,67.8,34.3
		c14.5,1.9,29,1.9,43.5-0.6c12.1-2.1,23.6-5.8,33.9-12.6c16.6-11,25.9-26.3,27.2-46.3C326.8,147.7,326,140.7,324.2,133.7z"/>
	<g id="XMLID_10_">
		<path id="XMLID_35_" class="st8" d="M112.2,183.9c-0.9,2.1-2.5,4.2-5,6.4c-3.2,2.9-6.5,4.2-10,3.9c-3.5-0.2-6.6-1.9-9.4-5
			c-3-3.3-4.4-6.9-4.2-10.8c0.2-3.9,1.9-7.3,5.2-10.2c2-1.8,4-3.1,5.8-3.8l4,4.5c-2.1,0.4-4.1,1.4-5.9,3c-2,1.7-3,3.8-3.1,6.1
			c-0.1,2.3,0.8,4.5,2.7,6.6c1.8,2,3.8,3.1,6,3.3c2.2,0.2,4.3-0.6,6.2-2.3c1.8-1.6,3.1-3.6,3.8-5.8L112.2,183.9z"/>
		<path id="XMLID_37_" class="st8" d="M128.8,171c-3,2.7-6.3,3.9-9.9,3.6c-3.6-0.3-6.8-1.9-9.6-5.1c-2.9-3.3-4.4-6.8-4.3-10.5
			c0.1-3.7,1.7-7,4.8-9.8c3-2.7,6.2-3.8,9.8-3.5c3.6,0.3,6.8,2,9.6,5.2c2.9,3.3,4.3,6.7,4.2,10.4C133.5,165.1,131.9,168.3,128.8,171
			z M113.4,153.4c-1.6,1.5-2.4,3.3-2.3,5.3c0.1,2.1,1.1,4.2,2.9,6.2c1.8,2.1,3.8,3.3,5.8,3.6s3.8-0.2,5.4-1.6
			c1.6-1.4,2.4-3.2,2.3-5.2c-0.1-2-1.1-4-2.9-6.1c-1.9-2.2-3.9-3.4-5.9-3.8C116.8,151.4,115,152,113.4,153.4z"/>
		<path id="XMLID_40_" class="st8" d="M154.6,148c-3,2.7-6.3,3.9-9.9,3.6s-6.8-1.9-9.6-5.1c-2.9-3.3-4.4-6.8-4.3-10.5
			c0.1-3.7,1.7-7,4.8-9.8c3-2.7,6.2-3.8,9.8-3.5c3.6,0.3,6.8,2,9.6,5.2c2.9,3.3,4.3,6.7,4.2,10.4C159.2,142.1,157.6,145.3,154.6,148
			z M139.2,130.4c-1.6,1.5-2.4,3.3-2.3,5.3c0.1,2.1,1.1,4.2,2.9,6.2c1.8,2.1,3.8,3.3,5.8,3.6c2,0.3,3.8-0.2,5.4-1.6
			c1.6-1.4,2.4-3.2,2.3-5.2c-0.1-2-1.1-4-2.9-6.1c-1.9-2.2-3.9-3.4-5.9-3.8C142.5,128.4,140.8,128.9,139.2,130.4z"/>
		<path id="XMLID_43_" class="st8" d="M188.5,117l-5.9,5.3l-14.1-3.6c-0.3-0.1-0.8-0.3-1.6-0.7l-0.1,0.1l9.1,10.2l-4.7,4.2
			l-18.6-20.8l4.7-4.2l8.8,9.8l0.1-0.1c-0.1-0.4-0.3-0.9-0.5-1.7l-2-13.8l5.6-5l1.6,16.4L188.5,117z"/>
		<path id="XMLID_45_" class="st8" d="M192,112.4l-4.1-4.6c1.5,0,2.9-0.3,4.2-0.9c1.3-0.5,2.5-1.2,3.5-2.1c0.6-0.5,1.1-1,1.4-1.5
			c0.3-0.5,0.6-1,0.7-1.4c0.1-0.5,0.1-0.9,0.1-1.3c-0.1-0.4-0.3-0.7-0.5-1c-0.4-0.4-0.8-0.7-1.3-0.8c-0.5-0.1-1.1-0.1-1.7,0
			c-0.6,0.1-1.4,0.3-2.1,0.5c-0.8,0.2-1.6,0.5-2.5,0.8c-2.2,0.8-4.2,1-5.8,0.8c-1.7-0.3-3.1-1.1-4.4-2.5c-1-1.1-1.6-2.2-1.8-3.4
			c-0.3-1.2-0.2-2.3,0.1-3.5c0.3-1.2,0.8-2.3,1.6-3.4c0.8-1.1,1.7-2.2,2.8-3.2c1.1-1,2.1-1.8,3-2.4c1-0.6,1.9-1.1,2.8-1.5l3.9,4.3
			c-0.6,0.1-1.1,0.2-1.7,0.4c-0.6,0.2-1.1,0.4-1.7,0.7c-0.5,0.3-1.1,0.6-1.5,0.9c-0.5,0.3-0.9,0.7-1.3,1c-0.5,0.5-1,1-1.3,1.4
			s-0.6,1-0.7,1.4c-0.1,0.5-0.2,0.9-0.1,1.3c0.1,0.4,0.2,0.8,0.5,1.1c0.3,0.3,0.7,0.6,1.1,0.7c0.4,0.1,0.9,0.1,1.5,0.1
			s1.2-0.2,1.9-0.4s1.5-0.4,2.3-0.7c1.1-0.4,2.2-0.7,3.2-0.9c1-0.2,2-0.3,2.9-0.2c0.9,0.1,1.8,0.3,2.6,0.7c0.8,0.4,1.6,1,2.4,1.9
			c1,1.2,1.7,2.3,2,3.5c0.3,1.2,0.2,2.4-0.1,3.5c-0.3,1.2-0.9,2.3-1.7,3.4c-0.8,1.1-1.8,2.2-2.9,3.2c-1.1,1-2.3,1.9-3.5,2.6
			C194.3,111.6,193.1,112.1,192,112.4z"/>
	</g>
</g>
<g id="XMLID_1_" class="st0">
	<path id="XMLID_21_" class="st9" d="M20.2,245.1c6,3.1,12,4.9,18.6,4.9c8.8,0,15.4-3.7,19.9-11.4c1.1-1.9,2.9-3.3,4.5-4.8
		c15.4-15.3,30.8-30.5,46.2-45.8c0.2-0.2,0.4-0.3,1-0.8c0.1,1,0.3,1.6,0.3,2.2c-0.1,11.8,0.1,23.7-0.3,35.5
		c-0.5,13.6-3.1,26.8-9.2,39c-5.8,11.5-14,20.9-25.9,26.1c-13,5.8-26.7,7.2-40.9,5c-10.1-1.6-19.4-4.9-28.2-10
		c-3.8-2.2-3.7-2.1-1.9-6c4.9-10.6,9.8-21.2,14.7-31.8C19.3,246.6,19.7,245.9,20.2,245.1z"/>
	<path id="XMLID_20_" class="st2" d="M64,176.8c0.1,0.9,0.3,1.8,0.4,2.8c-0.4,0.1-0.7,0.1-1.1,0.2c-0.1-0.9-0.3-1.8-0.4-2.7
		C63.3,176.9,63.6,176.8,64,176.8z"/>
	<path id="XMLID_19_" class="st2" d="M78.1,158c0.2-2.2,1.1-3.4,2.7-3.3c0.8,0,1.6,1.2,2.4,1.9c-1.2,1.1-2.4,2.1-3.6,3.2
		C79,159.1,78.5,158.4,78.1,158z"/>
	<linearGradient id="XMLID_61_" gradientUnits="userSpaceOnUse" x1="62.8894" y1="97.7979" x2="317.011" y2="97.7979">
		<stop  offset="0" style="stop-color:#F3DAE0"/>
		<stop  offset="1" style="stop-color:#E5C1CD"/>
	</linearGradient>
	<path id="XMLID_18_" class="st10" d="M316.2,33.5c-1.5-1.1-2.8-2.3-4.2-3.5c-9.4-7.6-19.5-13.9-30.8-18.3
		c-11.1-4.3-22.7-6.3-34.6-6.9C235,4.1,223.9,6.4,213.2,11c-8.7,3.8-16.4,9.2-23.7,15.1c-23.4,18.7-45.4,38.9-67.5,59.1
		c-3.3,3-6.6,6.1-10.4,9.6c0-1.4,0-2.2,0-3c0-11.6,0-23.2,0-34.8c0-3.5,0-3.5-3.4-3.5c-14.1,0-28.1,0-42.2,0c-3.2,0-3.2,0-3.2,3.1
		c0,20.1,0,40.2,0,60.3c0,14.5,0,29,0,43.5L62.9,186l0,0c0,1.6,0.3,3.2,0.1,5c1.1-0.7,1.6-1,2.1-1.5c0.8-1.6,2.9-3.4,5.9-5.3
		c22.7-20.5,45.4-40.9,68.1-61.4c19.6-17.6,39-35.3,58.7-52.9c6.3-5.7,12.7-11.3,19.5-16.4c5.9-4.4,12.8-7.3,20.2-7.7
		c5.4-0.3,11,0.1,16.3,1c10.3,1.6,19.5,6.1,27.8,12.4c2.9,2.2,5.8,4.6,8.8,7c2.7-3.2,5.4-6.3,8-9.4c6-7,11.9-14,17.9-21
		C317.2,34.9,317.3,34.3,316.2,33.5z"/>
	<path id="XMLID_17_" class="st11" d="M324.2,133.7c-2.7-10.5-8.4-19-16.6-25.8c0,0,0,0,0,0c-0.3-0.2-0.6-0.4-0.9-0.7
		c-0.2-0.2-0.4-0.3-0.6-0.5c0,0-0.1,0-0.1-0.1c-6.3-4.7-12.5-7.3-15.3-8.4c-0.1-0.1-0.3-0.2-0.4-0.3c-10.7-4.4-22-6.4-33.5-7.7
		c-5.2-0.6-10.5-0.8-15.7-1.4c-5.4-0.7-10.8-1.6-16.2-2.7c-1.7-0.4-2.8-0.1-4,1c-8.1,7.4-16.3,14.7-24.5,22.1
		c-2.6,2.4-5.2,4.8-7.9,7.2c0.6,0.4,0.8,0.7,1.1,0.9c7.2,3.8,14.8,6.8,22.8,8.3c7.9,1.6,15.9,3,23.8,4c9.4,1.2,19,1.2,28.2,4.2
		c4.5,1.4,8.7,3.4,11.3,7.5c4.5,7,3,16.2-3.6,22.4c-7.3,6.8-16.4,9.3-26,9.7c-9.9,0.4-19.8-1.2-29.4-3.6c-7.7-1.9-15.2-4.4-22-8.6
		c-4.8-2.9-9.1-6.4-14-9.9c0,0-0.3,0.1-0.6,0.4c-8.8,8.5-17.6,16.9-26.4,25.4c-1.2,1.1-0.8,1.9,0.1,2.8c18.8,19,41.1,30.9,67.8,34.3
		c14.5,1.9,29,1.9,43.5-0.6c12.1-2.1,23.6-5.8,33.9-12.6c16.6-11,25.9-26.3,27.2-46.3C326.8,147.7,326,140.7,324.2,133.7z"/>
	<g id="XMLID_16_" class="st2">
		<path id="XMLID_23_" class="st8" d="M112.2,183.9c-0.9,2.1-2.5,4.2-5,6.4c-3.2,2.9-6.5,4.2-10,3.9c-3.5-0.2-6.6-1.9-9.4-5
			c-3-3.3-4.4-6.9-4.2-10.8c0.2-3.9,1.9-7.3,5.2-10.2c2-1.8,4-3.1,5.8-3.8l4,4.5c-2.1,0.4-4.1,1.4-5.9,3c-2,1.7-3,3.8-3.1,6.1
			c-0.1,2.3,0.8,4.5,2.7,6.6c1.8,2,3.8,3.1,6,3.3c2.2,0.2,4.3-0.6,6.2-2.3c1.8-1.6,3.1-3.6,3.8-5.8L112.2,183.9z"/>
		<path id="XMLID_25_" class="st8" d="M128.8,171c-3,2.7-6.3,3.9-9.9,3.6c-3.6-0.3-6.8-1.9-9.6-5.1c-2.9-3.3-4.4-6.8-4.3-10.5
			c0.1-3.7,1.7-7,4.8-9.8c3-2.7,6.2-3.8,9.8-3.5c3.6,0.3,6.8,2,9.6,5.2c2.9,3.3,4.3,6.7,4.2,10.4C133.5,165.1,131.9,168.3,128.8,171
			z M113.4,153.4c-1.6,1.5-2.4,3.3-2.3,5.3c0.1,2.1,1.1,4.2,2.9,6.2c1.8,2.1,3.8,3.3,5.8,3.6s3.8-0.2,5.4-1.6
			c1.6-1.4,2.4-3.2,2.3-5.2c-0.1-2-1.1-4-2.9-6.1c-1.9-2.2-3.9-3.4-5.9-3.8C116.8,151.4,115,152,113.4,153.4z"/>
		<path id="XMLID_28_" class="st8" d="M154.6,148c-3,2.7-6.3,3.9-9.9,3.6s-6.8-1.9-9.6-5.1c-2.9-3.3-4.4-6.8-4.3-10.5
			c0.1-3.7,1.7-7,4.8-9.8c3-2.7,6.2-3.8,9.8-3.5c3.6,0.3,6.8,2,9.6,5.2c2.9,3.3,4.3,6.7,4.2,10.4C159.2,142.1,157.6,145.3,154.6,148
			z M139.2,130.4c-1.6,1.5-2.4,3.3-2.3,5.3c0.1,2.1,1.1,4.2,2.9,6.2c1.8,2.1,3.8,3.3,5.8,3.6c2,0.3,3.8-0.2,5.4-1.6
			c1.6-1.4,2.4-3.2,2.3-5.2c-0.1-2-1.1-4-2.9-6.1c-1.9-2.2-3.9-3.4-5.9-3.8C142.5,128.4,140.8,128.9,139.2,130.4z"/>
		<path id="XMLID_31_" class="st8" d="M188.5,117l-5.9,5.3l-14.1-3.6c-0.3-0.1-0.8-0.3-1.6-0.7l-0.1,0.1l9.1,10.2l-4.7,4.2
			l-18.6-20.8l4.7-4.2l8.8,9.8l0.1-0.1c-0.1-0.4-0.3-0.9-0.5-1.7l-2-13.8l5.6-5l1.6,16.4L188.5,117z"/>
		<path id="XMLID_33_" class="st8" d="M192,112.4l-4.1-4.6c1.5,0,2.9-0.3,4.2-0.9c1.3-0.5,2.5-1.2,3.5-2.1c0.6-0.5,1.1-1,1.4-1.5
			c0.3-0.5,0.6-1,0.7-1.4c0.1-0.5,0.1-0.9,0.1-1.3c-0.1-0.4-0.3-0.7-0.5-1c-0.4-0.4-0.8-0.7-1.3-0.8c-0.5-0.1-1.1-0.1-1.7,0
			c-0.6,0.1-1.4,0.3-2.1,0.5c-0.8,0.2-1.6,0.5-2.5,0.8c-2.2,0.8-4.2,1-5.8,0.8c-1.7-0.3-3.1-1.1-4.4-2.5c-1-1.1-1.6-2.2-1.8-3.4
			c-0.3-1.2-0.2-2.3,0.1-3.5c0.3-1.2,0.8-2.3,1.6-3.4c0.8-1.1,1.7-2.2,2.8-3.2c1.1-1,2.1-1.8,3-2.4c1-0.6,1.9-1.1,2.8-1.5l3.9,4.3
			c-0.6,0.1-1.1,0.2-1.7,0.4c-0.6,0.2-1.1,0.4-1.7,0.7c-0.5,0.3-1.1,0.6-1.5,0.9c-0.5,0.3-0.9,0.7-1.3,1c-0.5,0.5-1,1-1.3,1.4
			s-0.6,1-0.7,1.4c-0.1,0.5-0.2,0.9-0.1,1.3c0.1,0.4,0.2,0.8,0.5,1.1c0.3,0.3,0.7,0.6,1.1,0.7c0.4,0.1,0.9,0.1,1.5,0.1
			s1.2-0.2,1.9-0.4s1.5-0.4,2.3-0.7c1.1-0.4,2.2-0.7,3.2-0.9c1-0.2,2-0.3,2.9-0.2c0.9,0.1,1.8,0.3,2.6,0.7c0.8,0.4,1.6,1,2.4,1.9
			c1,1.2,1.7,2.3,2,3.5c0.3,1.2,0.2,2.4-0.1,3.5c-0.3,1.2-0.9,2.3-1.7,3.4c-0.8,1.1-1.8,2.2-2.9,3.2c-1.1,1-2.3,1.9-3.5,2.6
			C194.3,111.6,193.1,112.1,192,112.4z"/>
	</g>
</g>
</svg>