<?xml version="1.0" encoding="utf-8"?>
<!-- Generator: Adobe Illustrator 21.1.0, SVG Export Plug-In . SVG Version: 6.00 Build 0)  -->
<!DOCTYPE svg PUBLIC "-//W3C//DTD SVG 1.1//EN" "http://www.w3.org/Graphics/SVG/1.1/DTD/svg11.dtd">
<svg version="1.1" id="Layer_1" xmlns="http://www.w3.org/2000/svg" xmlns:xlink="http://www.w3.org/1999/xlink" x="0px" y="0px"
	 viewBox="0 0 140.6 99" style="enable-background:new 0 0 140.6 99;" xml:space="preserve">
<style type="text/css">
	.st0{opacity:0.12;fill-rule:evenodd;clip-rule:evenodd;}
	.st1{fill:#FFFFFF;}
</style>
<path id="The_Sharpness" class="st0" d="M55.8,28.2l33.3,22.3l4.7-2.4L55.8,28.2z"/>
<g id="Lozenge">
	<g>
		<path class="st1" d="M139.2,21.3c0,0-1.4-9.7-5.6-14c-5.3-5.6-11.3-5.6-14.1-6C99.9,0,70.3,0,70.3,0h-0.1c0,0-29.5,0-49.2,1.4
			c-2.7,0.3-8.7,0.4-14.1,6c-4.2,4.3-5.6,14-5.6,14S0,32.7,0,44.1v10.7c0,11.4,1.4,22.8,1.4,22.8s1.4,9.7,5.6,14
			c5.3,5.6,12.4,5.4,15.5,6c11.3,1.1,47.8,1.4,47.8,1.4s29.5,0,49.2-1.5c2.7-0.3,8.7-0.4,14.1-6c4.2-4.3,5.6-14,5.6-14
			s1.4-11.4,1.4-22.8V44.1C140.6,32.7,139.2,21.3,139.2,21.3z M55.8,67.7l0-39.5l38,19.8L55.8,67.7z"/>
	</g>
</g>
</svg>
